<svg width="353" height="96" viewBox="0 0 353 96" fill="none" xmlns="http://www.w3.org/2000/svg">
<circle cx="327.973" cy="54.8247" r="25.0261" fill="#7367F0"/>
<path d="M284.5 47.5147C284.659 47.5336 284.819 47.576 284.978 47.576C295.378 47.5807 305.783 47.576 316.183 47.5901C316.553 47.5901 316.744 47.4535 316.936 47.1707C321.472 40.4653 330.276 38.783 336.936 43.368C338.799 44.6497 340.26 46.3178 341.331 48.3205C341.327 48.4053 341.322 48.4855 341.317 48.5703C341.149 48.5137 340.976 48.4101 340.807 48.4101C337.62 48.4006 334.437 48.4053 331.249 48.3912C330.88 48.3912 330.664 48.4807 330.468 48.8294C329.349 50.8321 328.198 52.8207 327.046 54.8092C326.906 55.0495 326.864 55.2239 327.018 55.4878C328.207 57.5329 329.368 59.5921 330.561 61.6278C330.66 61.7927 330.95 61.9246 331.151 61.9246C334.353 61.9435 337.554 61.9388 340.756 61.934C340.938 61.934 341.116 61.9058 341.299 61.8916C341.336 61.9482 341.378 62.0047 341.416 62.0566C340.728 62.9802 340.105 63.9603 339.347 64.8226C334.849 69.9259 327.098 71.038 321.336 67.4379C319.562 66.3305 318.069 64.931 316.932 63.1639C316.726 62.8435 316.492 62.7493 316.122 62.7493C305.755 62.7587 295.382 62.7587 285.015 62.7587C284.842 62.7587 284.664 62.7964 284.491 62.8199C284.421 62.7493 284.35 62.6786 284.28 62.6079C284.247 62.5184 284.229 62.4194 284.182 62.3393C282.895 60.068 281.612 57.792 280.311 55.5255C280.157 55.2569 280.157 55.0684 280.311 54.7998C281.074 53.4945 281.818 52.1751 282.562 50.8557C283.143 49.8143 283.709 48.7682 284.285 47.7221C284.36 47.6561 284.43 47.5854 284.5 47.5147ZM290.164 56.5716C290.945 55.7799 290.936 54.5359 290.14 53.7443C289.373 52.9809 288.128 52.9809 287.355 53.7348C286.588 54.4888 286.583 55.8176 287.341 56.5857C288.114 57.3679 289.387 57.3632 290.164 56.5716Z" fill="white"/>
<path d="M71.4608 31.008C71.4608 36.4399 70.2141 41.4265 67.7208 45.968C65.2274 50.4204 61.3984 54.0268 56.2336 56.7873C51.0688 59.5478 44.6574 60.928 36.9993 60.928H22.8407V94.588H0V0.820801H36.9993C44.4793 0.820801 50.8017 2.112 55.9665 4.69437C61.1312 7.27675 65.0048 10.8387 67.5872 15.3801C70.1696 19.9215 71.4608 25.1308 71.4608 31.008ZM35.2629 42.7623C39.6262 42.7623 42.8765 41.7382 45.0136 39.6901C47.1508 37.642 48.2193 34.748 48.2193 31.008C48.2193 27.268 47.1508 24.3739 45.0136 22.3258C42.8765 20.2777 39.6262 19.2537 35.2629 19.2537H22.8407V42.7623H35.2629ZM106.192 32.4773C108.864 28.3811 112.203 25.1753 116.21 22.8601C120.217 20.4558 124.67 19.2537 129.567 19.2537V43.4301H123.289C117.59 43.4301 113.316 44.6768 110.466 47.1701C107.617 49.5744 106.192 53.8487 106.192 59.993V94.588H83.3518V20.0551H106.192V32.4773ZM135.943 57.188C135.943 49.5299 137.368 42.8068 140.218 37.0187C143.156 31.2306 147.119 26.7782 152.106 23.6615C157.092 20.5449 162.658 18.9865 168.802 18.9865C174.056 18.9865 178.642 20.0551 182.56 22.1922C186.567 24.3294 189.639 27.1344 191.776 30.6073V20.0551H214.617V94.588H191.776V84.0359C189.55 87.5087 186.433 90.3137 182.426 92.4509C178.508 94.588 173.922 95.6566 168.668 95.6566C162.613 95.6566 157.092 94.0983 152.106 90.9816C147.119 87.7759 143.156 83.279 140.218 77.4909C137.368 71.6137 135.943 64.8461 135.943 57.188ZM191.776 57.3216C191.776 51.6225 190.173 47.1256 186.968 43.8308C183.851 40.5361 180.022 38.8887 175.481 38.8887C170.939 38.8887 167.066 40.5361 163.86 43.8308C160.743 47.0365 159.185 51.4889 159.185 57.188C159.185 62.887 160.743 67.4285 163.86 70.8123C167.066 74.107 170.939 75.7544 175.481 75.7544C180.022 75.7544 183.851 74.107 186.968 70.8123C190.173 67.5175 191.776 63.0206 191.776 57.3216ZM301.4 56.1194C301.4 58.2566 301.267 60.4828 301 62.798H249.308C249.664 67.4285 251.133 70.9904 253.715 73.4837C256.387 75.888 259.637 77.0901 263.466 77.0901C269.165 77.0901 273.128 74.6859 275.354 69.8773H299.664C298.417 74.7749 296.147 79.1828 292.852 83.1009C289.646 87.019 285.594 90.0911 280.697 92.3173C275.799 94.5435 270.323 95.6566 264.268 95.6566C256.966 95.6566 250.465 94.0983 244.766 90.9816C239.067 87.8649 234.615 83.4125 231.409 77.6244C228.203 71.8363 226.6 65.0687 226.6 57.3216C226.6 49.5744 228.159 42.8068 231.275 37.0187C234.481 31.2306 238.934 26.7782 244.633 23.6615C250.332 20.5449 256.877 18.9865 264.268 18.9865C271.48 18.9865 277.892 20.5003 283.502 23.528C289.112 26.5556 293.475 30.8744 296.592 36.4844C299.798 42.0944 301.4 48.6394 301.4 56.1194ZM278.025 50.1087C278.025 46.1906 276.69 43.0739 274.018 40.7587C271.347 38.4434 268.008 37.2858 264 37.2858C260.171 37.2858 256.921 38.3989 254.25 40.6251C251.667 42.8513 250.064 46.0125 249.441 50.1087H278.025Z" fill="#313030"/>
</svg>
