<svg width="208" height="57" viewBox="0 0 208 57" fill="none" xmlns="http://www.w3.org/2000/svg">
<ellipse cx="192.44" cy="32.4582" rx="14.6142" ry="15.0417" fill="url(#paint0_linear)"/>
<path d="M167.053 28.0651C167.146 28.0764 167.239 28.1019 167.332 28.1019C173.405 28.1047 179.481 28.1019 185.554 28.1104C185.77 28.1104 185.882 28.0283 185.994 27.8583C188.643 23.8281 193.784 22.817 197.673 25.5728C198.761 26.3431 199.614 27.3457 200.24 28.5494C200.237 28.6004 200.234 28.6485 200.232 28.6995C200.133 28.6655 200.032 28.6032 199.934 28.6032C198.072 28.5976 196.214 28.6004 194.353 28.5919C194.137 28.5919 194.011 28.6457 193.896 28.8553C193.243 30.059 192.57 31.2542 191.898 32.4494C191.816 32.5938 191.791 32.6986 191.882 32.8572C192.576 34.0864 193.254 35.3241 193.951 36.5476C194.008 36.6467 194.178 36.726 194.295 36.726C196.165 36.7373 198.034 36.7345 199.904 36.7317C200.01 36.7317 200.114 36.7147 200.221 36.7062C200.243 36.7402 200.267 36.7741 200.289 36.8053C199.887 37.3604 199.524 37.9495 199.081 38.4678C196.454 41.5351 191.928 42.2035 188.564 40.0397C187.528 39.3741 186.656 38.533 185.992 37.4709C185.871 37.2783 185.735 37.2216 185.519 37.2216C179.465 37.2273 173.408 37.2273 167.354 37.2273C167.252 37.2273 167.149 37.25 167.047 37.2641C167.006 37.2216 166.965 37.1792 166.924 37.1367C166.905 37.0829 166.894 37.0234 166.867 36.9752C166.115 35.6101 165.367 34.2422 164.607 32.8799C164.517 32.7184 164.517 32.6051 164.607 32.4437C165.052 31.6592 165.487 30.8662 165.921 30.0731C166.26 29.4472 166.591 28.8185 166.927 28.1897C166.971 28.1501 167.012 28.1076 167.053 28.0651ZM170.36 33.5086C170.817 33.0328 170.811 32.2851 170.347 31.8093C169.898 31.3505 169.171 31.3505 168.72 31.8036C168.272 32.2568 168.269 33.0555 168.712 33.5171C169.163 33.9873 169.906 33.9844 170.36 33.5086Z" fill="black"/>
<path d="M42.648 18.1437C42.648 21.4085 41.92 24.4056 40.464 27.1352C39.008 29.8113 36.772 31.9789 33.756 33.638C30.74 35.2972 26.996 36.1268 22.524 36.1268H14.256V56.3577H0.917969V0H22.524C26.892 0 30.584 0.776058 33.6 2.32816C36.616 3.88028 38.878 6.02113 40.386 8.7507C41.894 11.4803 42.648 14.6113 42.648 18.1437ZM21.51 25.2084C24.058 25.2084 25.956 24.593 27.204 23.362C28.452 22.131 29.076 20.3915 29.076 18.1437C29.076 15.8958 28.452 14.1563 27.204 12.9254C25.956 11.6944 24.058 11.0789 21.51 11.0789H14.256V25.2084H21.51ZM62.9297 19.0268C64.4897 16.5648 66.4397 14.638 68.7797 13.2465C71.1197 11.8014 73.7197 11.0789 76.5797 11.0789V25.6099H72.9137C69.5857 25.6099 67.0897 26.3592 65.4257 27.8577C63.7617 29.3028 62.9297 31.8718 62.9297 35.5648V56.3577H49.5919V11.5606H62.9297V19.0268ZM80.3031 33.8789C80.3031 29.2761 81.1351 25.2352 82.7991 21.7563C84.5151 18.2775 86.8291 15.6014 89.7411 13.7282C92.6531 11.8549 95.9032 10.9183 99.4912 10.9183C102.559 10.9183 105.237 11.5606 107.525 12.8451C109.865 14.1296 111.659 15.8155 112.907 17.9028V11.5606H126.245V56.3577H112.907V50.0155C111.607 52.1028 109.787 53.7887 107.447 55.0732C105.159 56.3577 102.481 57 99.4132 57C95.8772 57 92.6531 56.0634 89.7411 54.1901C86.8291 52.2634 84.5151 49.5606 82.7991 46.0817C81.1351 42.5493 80.3031 38.4817 80.3031 33.8789ZM112.907 33.9592C112.907 30.5338 111.971 27.831 110.099 25.8507C108.279 23.8704 106.043 22.8803 103.391 22.8803C100.739 22.8803 98.4771 23.8704 96.6051 25.8507C94.7851 27.7775 93.8752 30.4535 93.8752 33.8789C93.8752 37.3042 94.7851 40.0338 96.6051 42.0676C98.4771 44.0479 100.739 45.038 103.391 45.038C106.043 45.038 108.279 44.0479 110.099 42.0676C111.971 40.0873 112.907 37.3845 112.907 33.9592ZM176.923 33.2366C176.923 34.5211 176.845 35.8592 176.689 37.2507H146.503C146.711 40.0338 147.569 42.1746 149.077 43.6732C150.637 45.1183 152.535 45.8408 154.771 45.8408C158.099 45.8408 160.413 44.3958 161.713 41.5056H175.909C175.181 44.4493 173.855 47.0986 171.931 49.4535C170.059 51.8084 167.693 53.6549 164.833 54.993C161.973 56.331 158.775 57 155.239 57C150.975 57 147.179 56.0634 143.851 54.1901C140.523 52.3169 137.923 49.6408 136.051 46.162C134.179 42.6831 133.243 38.6155 133.243 33.9592C133.243 29.3028 134.153 25.2352 135.973 21.7563C137.845 18.2775 140.445 15.6014 143.773 13.7282C147.101 11.8549 150.923 10.9183 155.239 10.9183C159.451 10.9183 163.195 11.8282 166.471 13.6479C169.747 15.4676 172.295 18.0634 174.115 21.4352C175.987 24.807 176.923 28.7408 176.923 33.2366ZM163.273 29.6239C163.273 27.269 162.493 25.3958 160.933 24.0042C159.373 22.6127 157.423 21.9169 155.083 21.9169C152.847 21.9169 150.949 22.5859 149.389 23.9239C147.881 25.262 146.945 27.162 146.581 29.6239H163.273Z" fill="black"/>
<defs>
<linearGradient id="paint0_linear" x1="192.44" y1="17.4165" x2="192.44" y2="47.4998" gradientUnits="userSpaceOnUse">
<stop stop-color="#57B6E5"/>
<stop offset="1" stop-color="#7367F0"/>
</linearGradient>
</defs>
</svg>
