<svg width="91" height="91" viewBox="0 0 91 91" fill="none" xmlns="http://www.w3.org/2000/svg">
<g filter="url(#filter0_i)">
<mask id="path-1-inside-1" fill="white">
<rect y="20.9751" width="33" height="33" rx="1" transform="rotate(-16.6982 0 20.9751)"/>
</mask>
<rect y="20.9751" width="33" height="33" rx="1" transform="rotate(-16.6982 0 20.9751)" stroke="#8257E5" stroke-width="8" mask="url(#path-1-inside-1)"/>
<mask id="path-2-inside-2" fill="white">
<rect x="11.4922" y="59.2883" width="33" height="33" rx="1" transform="rotate(-16.6982 11.4922 59.2883)"/>
</mask>
<rect x="11.4922" y="59.2883" width="33" height="33" rx="1" transform="rotate(-16.6982 11.4922 59.2883)" stroke="#8257E5" stroke-width="8" mask="url(#path-2-inside-2)"/>
<mask id="path-3-inside-3" fill="white">
<rect x="38.3125" y="9.48193" width="33" height="33" rx="1" transform="rotate(-16.6982 38.3125 9.48193)"/>
</mask>
<rect x="38.3125" y="9.48193" width="33" height="33" rx="1" transform="rotate(-16.6982 38.3125 9.48193)" stroke="#8257E5" stroke-width="8" mask="url(#path-3-inside-3)"/>
<mask id="path-4-inside-4" fill="white">
<rect x="49.8047" y="47.7952" width="33" height="33" rx="1" transform="rotate(-16.6982 49.8047 47.7952)"/>
</mask>
<rect x="49.8047" y="47.7952" width="33" height="33" rx="1" transform="rotate(-16.6982 49.8047 47.7952)" stroke="#8257E5" stroke-width="8" mask="url(#path-4-inside-4)"/>
</g>
<defs>
<filter id="filter0_i" x="0" y="0" width="90.895" height="94.8967" filterUnits="userSpaceOnUse" color-interpolation-filters="sRGB">
<feFlood flood-opacity="0" result="BackgroundImageFix"/>
<feBlend mode="normal" in="SourceGraphic" in2="BackgroundImageFix" result="shape"/>
<feColorMatrix in="SourceAlpha" type="matrix" values="0 0 0 0 0 0 0 0 0 0 0 0 0 0 0 0 0 0 127 0" result="hardAlpha"/>
<feOffset dy="4"/>
<feGaussianBlur stdDeviation="2.5"/>
<feComposite in2="hardAlpha" operator="arithmetic" k2="-1" k3="1"/>
<feColorMatrix type="matrix" values="0 0 0 0 0.45098 0 0 0 0 0.403922 0 0 0 0 0.941176 0 0 0 1 0"/>
<feBlend mode="normal" in2="shape" result="effect1_innerShadow"/>
</filter>
</defs>
</svg>
